<svg xmlns="http://www.w3.org/2000/svg" viewBox="0 0 67.5 67.5"><defs><style>.cls-1{fill:#555b6e;}.cls-2{fill:#fff;}</style></defs><g id="Layer_2" data-name="Layer 2"><g id="Layer_1-2" data-name="Layer 1"><path class="cls-1" d="M67.5,33.75a33.75,33.75,0,1,0-39,33.34V43.51H19.91V33.75h8.57V26.31c0-8.45,5-13.13,12.74-13.13a51.82,51.82,0,0,1,7.56.66v8.31H44.52c-4.19,0-5.5,2.6-5.5,5.27v6.33h9.36l-1.49,9.76H39V67.09A33.75,33.75,0,0,0,67.5,33.75Z"/><path class="cls-2" d="M46.89,43.51l1.49-9.76H39V27.42c0-2.67,1.31-5.27,5.5-5.27h4.26V13.84a51.82,51.82,0,0,0-7.56-.66c-7.7,0-12.74,4.68-12.74,13.13v7.44H19.91v9.76h8.57V67.09a34.07,34.07,0,0,0,10.54,0V43.51Z"/></g></g></svg>