<svg xmlns="http://www.w3.org/2000/svg" viewBox="0 0 67.25 67.16"><defs><style>.cls-1{fill:#fff;}.cls-2{fill:#555b6e;}</style></defs><g id="Layer_2" data-name="Layer 2"><g id="Layer_1-2" data-name="Layer 1"><ellipse class="cls-1" cx="33.68" cy="35.84" rx="32.75" ry="31.32"/><path class="cls-2" d="M33.63,0A33.61,33.61,0,0,0,22.52,65.34c1.77.45,1.5-.81,1.5-1.67V57.85c-10.2,1.2-10.61-5.55-11.29-6.68-1.39-2.36-4.65-3-3.68-4.09,2.32-1.19,4.69.31,7.43,4.36,2,2.93,5.86,2.44,7.82,2a9.51,9.51,0,0,1,2.6-4.57c-10.56-1.89-15-8.34-15-16a14.78,14.78,0,0,1,3.63-9.9,13,13,0,0,1,.37-9c4.36-.39,8.9,3.12,9.25,3.4a32.58,32.58,0,0,1,8.48-1,32.93,32.93,0,0,1,8.53,1c.85-.64,5.06-3.66,9.11-3.3a13.19,13.19,0,0,1,.42,8.87,14.8,14.8,0,0,1,3.67,9.94c0,7.68-4.43,14.13-15,16a9.58,9.58,0,0,1,2.86,6.83v8.45c.06.68,0,1.35,1.13,1.35A33.62,33.62,0,0,0,33.63,0Z"/></g></g></svg>