<svg xmlns="http://www.w3.org/2000/svg" viewBox="0 0 67.5 67.5"><defs><style>.cls-1{fill:#555b6e;}.cls-2{fill:#fff;}</style></defs><g id="Layer_2" data-name="Layer 2"><g id="Layer_1-2" data-name="Layer 1"><circle class="cls-1" cx="33.75" cy="33.75" r="33.75"/><path class="cls-2" d="M33.75,16.33c5.67,0,6.35,0,8.59.12a11.91,11.91,0,0,1,3.94.73,7,7,0,0,1,4,4,11.91,11.91,0,0,1,.73,3.94c.1,2.24.12,2.92.12,8.59s0,6.35-.12,8.59a11.91,11.91,0,0,1-.73,3.94,7,7,0,0,1-4,4,11.91,11.91,0,0,1-3.94.73c-2.24.1-2.92.12-8.59.12s-6.35,0-8.59-.12a11.91,11.91,0,0,1-3.94-.73,7,7,0,0,1-4-4,11.91,11.91,0,0,1-.73-3.94c-.1-2.24-.12-2.92-.12-8.59s0-6.35.12-8.59a11.91,11.91,0,0,1,.73-3.94,7,7,0,0,1,4-4,11.91,11.91,0,0,1,3.94-.73c2.24-.1,2.92-.12,8.59-.12m0-3.83c-5.77,0-6.49,0-8.76.13a15.4,15.4,0,0,0-5.16,1,10.87,10.87,0,0,0-6.21,6.21,15.4,15.4,0,0,0-1,5.16c-.11,2.27-.13,3-.13,8.76s0,6.49.13,8.76a15.4,15.4,0,0,0,1,5.16,10.87,10.87,0,0,0,6.21,6.21,15.4,15.4,0,0,0,5.16,1c2.27.11,3,.13,8.76.13s6.49,0,8.76-.13a15.4,15.4,0,0,0,5.16-1,10.87,10.87,0,0,0,6.21-6.21,15.4,15.4,0,0,0,1-5.16c.11-2.27.13-3,.13-8.76s0-6.49-.13-8.76a15.4,15.4,0,0,0-1-5.16,10.87,10.87,0,0,0-6.21-6.21,15.4,15.4,0,0,0-5.16-1c-2.27-.11-3-.13-8.76-.13Z"/><path class="cls-2" d="M33.75,22.84A10.91,10.91,0,1,0,44.66,33.75,10.9,10.9,0,0,0,33.75,22.84Zm0,18a7.08,7.08,0,1,1,7.08-7.08A7.08,7.08,0,0,1,33.75,40.83Z"/><circle class="cls-2" cx="45.09" cy="22.41" r="2.55"/></g></g></svg>