<svg xmlns="http://www.w3.org/2000/svg" viewBox="0 0 67.5 67.5"><defs><style>.cls-1{fill:#555b6e;}.cls-2{fill:#fdfdfd;}</style></defs><g id="Layer_2" data-name="Layer 2"><g id="Layer_1-2" data-name="Layer 1"><circle class="cls-1" cx="33.75" cy="33.75" r="33.75"/><path class="cls-2" d="M36.36,29.15c.56-.63,1-1.26,1.58-1.8a8.67,8.67,0,0,1,6.24-2.46,14.37,14.37,0,0,1,3.92.48,7.68,7.68,0,0,1,5.45,5.73,24.07,24.07,0,0,1,.72,6.55c0,4.67,0,9.33,0,14,0,.44-.12.55-.55.55q-3.61,0-7.21,0c-.42,0-.51-.13-.51-.53Q46,45,46,38.35a11.52,11.52,0,0,0-.39-3.3,3.7,3.7,0,0,0-4.08-2.89c-2.85.15-4.33,1.56-4.69,4.45a16.13,16.13,0,0,0-.13,2.08c0,4.32,0,8.63,0,13,0,.43-.11.55-.55.55q-3.62,0-7.25,0c-.39,0-.5-.1-.5-.5q0-12.81,0-25.62c0-.42.13-.52.53-.52q3.45,0,6.9,0c.42,0,.53.13.52.53C36.35,27.1,36.36,28.12,36.36,29.15Z"/><path class="cls-2" d="M23.2,38.91c0,4.22,0,8.45,0,12.67,0,.47-.11.62-.6.61-2.4,0-4.8,0-7.2,0-.39,0-.5-.1-.5-.49q0-12.84,0-25.67c0-.36.09-.48.46-.48,2.44,0,4.87,0,7.31,0,.47,0,.53.17.53.58Q23.2,32.52,23.2,38.91Z"/><path class="cls-2" d="M23.86,17.07a4.8,4.8,0,1,1-4.78-4.77A4.81,4.81,0,0,1,23.86,17.07Z"/></g></g></svg>