<svg xmlns="http://www.w3.org/2000/svg" viewBox="0 0 1920 1080"><defs><style>.cls-1{fill:none;}.cls-2{fill:#e0afa0;}</style></defs><g id="Layer_2" data-name="Layer 2"><g id="Layer_1-2" data-name="Layer 1"><rect class="cls-1" width="1920" height="1080"/><polygon class="cls-2" points="253.83 442.17 242.29 443.66 236.98 454.02 231.99 443.51 220.5 441.66 228.96 433.67 227.16 422.17 237.38 427.74 247.76 422.48 245.62 433.92 253.83 442.17"/><polygon class="cls-2" points="185.57 418.75 177.84 413.4 169.04 416.74 171.74 407.73 165.85 400.39 175.25 400.18 180.41 392.31 183.52 401.18 192.6 403.65 185.12 409.36 185.57 418.75"/><polygon class="cls-2" points="201.63 352.77 208.51 354.34 213.71 349.56 214.35 356.6 220.5 360.06 214.01 362.84 212.61 369.77 207.96 364.45 200.94 365.26 204.57 359.2 201.63 352.77"/></g></g></svg>