<svg xmlns="http://www.w3.org/2000/svg" viewBox="0 0 521.92 918.76"><defs><style>.cls-1{fill:#ffd6ba;}</style></defs><g id="Layer_2" data-name="Layer 2"><g id="Layer_1-2" data-name="Layer 1"><path class="cls-1" d="M521.92,0V880.9A292.12,292.12,0,0,1,462.5,907q-5.52,1.71-11.09,3.17-10.43,2.73-21,4.62c-1.64.29-3.28.57-4.93.82a258.17,258.17,0,0,1-40.2,3.15c-1.88,0-3.76,0-5.64-.07-1.6,0-3.2-.08-4.79-.14q-11-.43-21.75-1.8-5.25-.66-10.44-1.53C149.91,883,0,635.18,0,334.2,0,209.93,25.56,94.71,69.14,0Z"/></g></g></svg>