<svg xmlns="http://www.w3.org/2000/svg" viewBox="0 0 87.97 104.46"><defs><style>.cls-1{fill:#e0afa0;}</style></defs><g id="Layer_2" data-name="Layer 2"><g id="Layer_1-2" data-name="Layer 1"><polygon class="cls-1" points="0 92.6 11.54 94.1 16.84 104.46 21.83 93.95 33.32 92.1 24.87 84.11 26.66 72.61 16.45 78.18 6.07 72.92 8.21 84.36 0 92.6"/><polygon class="cls-1" points="68.25 69.19 75.99 63.84 84.78 67.18 82.08 58.17 87.97 50.83 78.57 50.62 73.42 42.75 70.31 51.62 61.23 54.09 68.71 59.8 68.25 69.19"/><polygon class="cls-1" points="52.2 3.21 45.31 4.78 40.11 0 39.48 7.04 33.32 10.51 39.82 13.28 41.21 20.21 45.86 14.89 52.88 15.7 49.26 9.64 52.2 3.21"/></g></g></svg>